<?xml version="1.0" standalone="no"?>
<!DOCTYPE svg PUBLIC "-//W3C//DTD SVG 20010904//EN"
 "http://www.w3.org/TR/2001/REC-SVG-20010904/DTD/svg10.dtd">
<svg version="1.0" xmlns="http://www.w3.org/2000/svg"
 width="16.000000pt" height="16.000000pt" viewBox="0 0 16.000000 16.000000"
 preserveAspectRatio="xMidYMid meet">

<g transform="translate(0.000000,16.000000) scale(0.100000,-0.100000)"
fill="#000000" stroke="none">
<path d="M0 80 l0 -80 80 0 80 0 0 80 0 80 -80 0 -80 0 0 -80z m70 23 c10 -17
10 -17 20 0 18 29 30 19 30 -23 0 -22 -4 -40 -10 -40 -5 0 -10 6 -10 13 0 7
-9 13 -20 13 -11 0 -20 -6 -20 -13 0 -7 -4 -13 -10 -13 -5 0 -10 18 -10 40 0
42 12 52 30 23z"/>
</g>
</svg>
